<svg xmlns="http://www.w3.org/2000/svg" viewBox="0 0 200 240" role="img" aria-label="Troféu estilizado">
  <defs>
    <linearGradient id="goldGrad" x1="0" y1="0" x2="0" y2="1">
      <stop offset="0%" stop-color="#F6D976"/>
      <stop offset="55%" stop-color="#D9A404"/>
      <stop offset="100%" stop-color="#A9760A"/>
    </linearGradient>
  </defs>
  <path d="M60 20 H140 V60 C140 95 118 118 100 122 C82 118 60 95 60 60 Z" fill="url(#goldGrad)"/>
  <path d="M60 30 C35 30 25 45 25 62 C25 82 42 96 65 98 L65 82 C50 79 42 71 42 60 C42 50 47 45 60 45 Z" fill="url(#goldGrad)"/>
  <path d="M140 30 C165 30 175 45 175 62 C175 82 158 96 135 98 L135 82 C150 79 158 71 158 60 C158 50 153 45 140 45 Z" fill="url(#goldGrad)"/>
  <rect x="92" y="120" width="16" height="46" fill="url(#goldGrad)"/>
  <path d="M70 166 H130 L138 200 H62 Z" fill="url(#goldGrad)"/>
  <rect x="50" y="200" width="100" height="18" rx="4" fill="url(#goldGrad)"/>
  <rect x="40" y="218" width="120" height="14" rx="4" fill="#B98307"/>
</svg>
